<svg width="462" height="278" viewBox="0 0 462 278" fill="none" xmlns="http://www.w3.org/2000/svg">
<g clip-path="url(#clip0_329_126)">
<path d="M29.0621 58.2708C23.3141 58.2708 17.6953 56.562 12.9161 53.3606C8.13683 50.1591 4.41187 45.6088 2.21223 40.285C0.0125922 34.9612 -0.562933 29.1031 0.558432 23.4513C1.6798 17.7996 4.4477 12.6082 8.5121 8.53356C12.5765 4.45891 17.7549 1.68404 23.3924 0.559841C29.0298 -0.564354 34.8732 0.0126239 40.1836 2.21781C45.494 4.423 50.0329 8.15735 53.2263 12.9486C56.4197 17.7399 58.1241 23.373 58.1241 29.1354C58.1154 36.8599 55.0507 44.2655 49.6024 49.7276C44.1541 55.1896 36.7671 58.262 29.0621 58.2708ZM29.0621 1.21399C23.5536 1.21399 18.1689 2.85155 13.5888 5.91959C9.00871 8.98763 5.43896 13.3484 3.33098 18.4503C1.22299 23.5523 0.671446 29.1664 1.74609 34.5826C2.82073 39.9988 5.47329 44.9739 9.36834 48.8788C13.2634 52.7837 18.226 55.4429 23.6286 56.5203C29.0312 57.5976 34.6311 57.0447 39.7202 54.9314C44.8094 52.8181 49.1591 49.2393 52.2194 44.6477C55.2798 40.056 56.9132 34.6577 56.9132 29.1354C56.9048 21.7327 53.9678 14.6357 48.7466 9.40125C43.5253 4.16679 36.4461 1.22238 29.0621 1.21399Z" fill="#F2F2F2"/>
<path d="M226.442 41.275C223.568 41.275 220.758 40.4206 218.369 38.8199C215.979 37.2192 214.117 34.944 213.017 32.2821C211.917 29.6202 211.629 26.6912 212.19 23.8653C212.751 21.0395 214.135 18.4438 216.167 16.4064C218.199 14.3691 220.788 12.9817 223.607 12.4196C226.426 11.8575 229.347 12.146 232.002 13.2486C234.658 14.3511 236.927 16.2183 238.524 18.614C240.12 21.0096 240.973 23.8261 240.973 26.7073C240.968 30.5696 239.436 34.2724 236.712 37.0034C233.988 39.7344 230.294 41.2706 226.442 41.275ZM226.442 13.3536C223.807 13.3536 221.232 14.1368 219.041 15.6041C216.851 17.0715 215.144 19.157 214.136 21.5971C213.127 24.0372 212.864 26.7222 213.378 29.3125C213.891 31.9029 215.16 34.2823 217.023 36.1498C218.886 38.0174 221.259 39.2892 223.843 39.8045C226.427 40.3197 229.105 40.0553 231.539 39.0446C233.973 38.0338 236.053 36.3223 237.517 34.1263C238.981 31.9303 239.762 29.3485 239.762 26.7073C239.758 23.1669 238.353 19.7727 235.856 17.2693C233.359 14.7658 229.973 13.3576 226.442 13.3536Z" fill="#F2F2F2"/>
<path d="M328.764 112.293C325.531 112.293 322.371 111.332 319.682 109.531C316.994 107.73 314.899 105.17 313.661 102.176C312.424 99.1811 312.1 95.8859 312.731 92.7068C313.362 89.5277 314.919 86.6075 317.205 84.3155C319.491 82.0235 322.404 80.4626 325.575 79.8303C328.746 79.1979 332.033 79.5225 335.02 80.7629C338.007 82.0033 340.56 84.1039 342.357 86.799C344.153 89.4941 345.112 92.6627 345.112 95.904C345.107 100.249 343.383 104.415 340.318 107.487C337.254 110.56 333.098 112.288 328.764 112.293ZM328.764 80.7294C325.771 80.7294 322.844 81.6193 320.355 83.2868C317.866 84.9542 315.926 87.3241 314.78 90.0969C313.634 92.8698 313.335 95.9209 313.919 98.8645C314.503 101.808 315.944 104.512 318.061 106.634C320.178 108.756 322.875 110.202 325.811 110.787C328.748 111.373 331.791 111.072 334.557 109.924C337.323 108.775 339.687 106.83 341.35 104.335C343.013 101.839 343.901 98.9053 343.901 95.904C343.896 91.8808 342.3 88.0237 339.463 85.1789C336.625 82.3341 332.777 80.7339 328.764 80.7294Z" fill="#F2F2F2"/>
<path d="M461.394 278H325.166C325.005 278 324.851 277.936 324.738 277.822C324.624 277.708 324.561 277.554 324.561 277.393C324.561 277.232 324.624 277.078 324.738 276.964C324.851 276.85 325.005 276.786 325.166 276.786H461.394C461.555 276.786 461.709 276.85 461.823 276.964C461.936 277.078 462 277.232 462 277.393C462 277.554 461.936 277.708 461.823 277.822C461.709 277.936 461.555 278 461.394 278Z" fill="#CCCCCC"/>
<path d="M388.049 93.0188C396.262 93.0188 402.92 86.3442 402.92 78.1106C402.92 69.877 396.262 63.2024 388.049 63.2024C379.837 63.2024 373.179 69.877 373.179 78.1106C373.179 86.3442 379.837 93.0188 388.049 93.0188Z" fill="#FFB8B8"/>
<path d="M389.592 255.143L382.564 257.536L370.011 231.496L380.384 227.964L389.592 255.143Z" fill="#FFB8B8"/>
<path d="M376.861 257.232L390.416 252.616L393.315 261.173L371.225 268.694C370.845 267.571 370.689 266.383 370.766 265.199C370.843 264.015 371.152 262.857 371.675 261.793C372.199 260.729 372.926 259.778 373.816 258.996C374.706 258.213 375.74 257.614 376.861 257.232Z" fill="#2F2E41"/>
<path d="M405.472 269.851L398.059 270.225L393.094 241.736L404.036 241.184L405.472 269.851Z" fill="#FFB8B8"/>
<path d="M392.657 268.368L406.955 267.647L407.407 276.672L384.108 277.846C384.048 276.661 384.222 275.476 384.62 274.358C385.017 273.24 385.631 272.212 386.424 271.332C387.218 270.452 388.177 269.737 389.247 269.228C390.316 268.72 391.475 268.427 392.657 268.368Z" fill="#2F2E41"/>
<path d="M361.356 175.195C362.02 174.601 362.547 173.869 362.899 173.049C363.251 172.23 363.42 171.343 363.393 170.451C363.366 169.559 363.144 168.684 362.743 167.887C362.342 167.09 361.772 166.391 361.073 165.84L368.141 145.339L357.248 148.13L352.206 167.17C351.359 168.409 350.995 169.917 351.183 171.407C351.371 172.898 352.097 174.267 353.225 175.257C354.353 176.246 355.804 176.786 357.302 176.774C358.801 176.763 360.243 176.201 361.356 175.195Z" fill="#FFB8B8"/>
<path d="M404.78 261.262C404.684 261.262 404.588 261.256 404.493 261.246L394.43 260.178C393.812 260.116 393.234 259.842 392.793 259.403C392.352 258.963 392.075 258.386 392.009 257.766L384.232 188.26L378.605 207.28L389.097 244.66C389.203 245.041 389.227 245.44 389.164 245.831C389.102 246.221 388.956 246.594 388.736 246.922C388.516 247.25 388.228 247.527 387.891 247.733C387.554 247.939 387.177 248.068 386.785 248.114L376.584 249.289C375.935 249.361 375.281 249.198 374.741 248.829C374.201 248.46 373.81 247.909 373.64 247.277L362.494 205.211C362.402 204.865 362.379 204.504 362.427 204.15L367.436 166.396L404.802 169.4L407.503 258.447C407.515 258.812 407.452 259.176 407.32 259.517C407.189 259.858 406.99 260.169 406.736 260.432C406.482 260.694 406.178 260.903 405.842 261.046C405.506 261.188 405.145 261.262 404.78 261.262V261.262Z" fill="#2F2E41"/>
<path d="M391.863 175.855C379.345 175.855 365.172 171.006 364.314 170.709L364.065 170.622L378.188 97.9756L378.447 97.9863C384.044 98.2139 399.317 98.3307 399.471 98.3318L399.745 98.3339L405.632 162.443L406.684 171.82L406.555 171.925C402.954 174.844 397.581 175.855 391.863 175.855Z" fill="#E63946"/>
<path d="M369.248 169.577L360.415 166.01L364.917 111.416C365.026 110.07 365.434 108.765 366.113 107.599C366.791 106.432 367.722 105.433 368.837 104.676L373.485 101.505C373.354 101.056 373.33 100.583 373.416 100.124C373.503 99.6645 373.696 99.2323 373.982 98.8627C374.267 98.493 374.636 98.1965 375.057 97.9974C375.479 97.7983 375.942 97.7023 376.408 97.7173L377.739 97.7602C377.992 97.5892 378.291 97.4988 378.596 97.501C378.901 97.5032 379.199 97.5978 379.449 97.7725C379.7 97.9471 379.892 98.1936 380 98.4796C380.109 98.7657 380.128 99.0778 380.056 99.3752L379.764 105.159L369.248 169.577Z" fill="#2F2E41"/>
<path d="M364.791 159.79L353.258 159.303L356.994 135.21L360.09 112.54C360.151 111.726 360.394 110.936 360.802 110.23C361.211 109.523 361.773 108.919 362.447 108.461C363.121 108.003 363.89 107.703 364.695 107.585C365.501 107.467 366.323 107.533 367.1 107.778C368.309 108.158 369.347 108.954 370.03 110.024C370.714 111.095 371 112.373 370.838 113.633L367.702 138.197L364.791 159.79Z" fill="#2F2E41"/>
<path d="M383.053 170.412L382.975 170.169C382.921 170.002 377.723 153.288 386.42 133.342L390.782 111.596L394.509 97.9421C394.578 97.6981 394.704 97.4737 394.876 97.2869C395.047 97.1001 395.26 96.9559 395.496 96.8659C395.775 96.7694 396.075 96.7571 396.36 96.8305C396.645 96.9039 396.903 97.0599 397.1 97.279C399.698 96.5145 402.49 96.7945 404.886 98.0595L410.12 100.824C411.284 101.438 412.211 102.423 412.757 103.622C413.303 104.822 413.436 106.17 413.136 107.454L405.982 138.06L409.46 166.647L383.053 170.412Z" fill="#2F2E41"/>
<path d="M390.669 158.629C391.554 158.725 392.449 158.626 393.292 158.338C394.134 158.05 394.903 157.58 395.545 156.962C396.187 156.343 396.686 155.591 397.006 154.759C397.327 153.926 397.462 153.034 397.401 152.143L413.6 140.113L407.938 137.421L390.47 146.442C388.985 146.644 387.625 147.384 386.648 148.524C385.671 149.663 385.146 151.122 385.17 152.624C385.195 154.127 385.768 155.567 386.782 156.674C387.795 157.781 389.179 158.476 390.669 158.629V158.629Z" fill="#FFB8B8"/>
<path d="M400.826 153.243L395.354 143.004L408.848 134.1L402.263 110.422C402 109.474 401.934 108.482 402.07 107.507C402.206 106.532 402.541 105.596 403.054 104.757C403.567 103.918 404.247 103.194 405.052 102.63C405.856 102.066 406.768 101.675 407.731 101.48C409.431 101.14 411.197 101.431 412.7 102.298C414.204 103.164 415.342 104.548 415.904 106.193L424.789 132.376C424.973 132.915 424.983 133.498 424.819 134.044C424.655 134.59 424.324 135.07 423.874 135.418L400.826 153.243Z" fill="#2F2E41"/>
<path d="M389.102 81.2726C387.319 81.5052 385.974 79.6767 385.351 77.9864C384.727 76.2962 384.252 74.3284 382.702 73.4153C380.584 72.1679 377.875 73.6682 375.454 73.2567C372.719 72.7919 370.941 69.8865 370.802 67.1095C370.663 64.3325 371.765 61.6615 372.847 59.1011L373.224 62.2831C373.174 61.2047 373.4 60.1313 373.882 59.1656C374.363 58.1999 375.084 57.3742 375.975 56.7676L375.488 61.4367C375.592 60.7925 375.821 60.1752 376.163 59.6201C376.505 59.0651 376.953 58.5832 377.482 58.2022C378.01 57.8212 378.608 57.5486 379.242 57.4C379.876 57.2513 380.533 57.2296 381.175 57.3361L381.098 60.1181C384.257 59.7416 387.443 59.3646 390.61 59.6514C393.778 59.9383 396.968 60.9431 399.369 63.0345C402.96 66.163 404.272 71.3144 403.831 76.0637C403.391 80.813 401.435 85.2745 399.397 89.5845C398.884 90.6688 398.175 91.8925 396.986 92.0306C395.918 92.1547 394.94 91.2593 394.608 90.2338C394.352 89.1815 394.362 88.0818 394.637 87.0343C394.937 85.4335 395.316 83.7973 395.034 82.1932C394.751 80.5891 393.6 79.004 391.987 78.8074C390.374 78.6108 388.724 80.4591 389.499 81.8906L389.102 81.2726Z" fill="#2F2E41"/>
<path d="M194.54 244.966L188.751 242.522L184.78 213.431H131.9L127.595 242.404L122.417 244.999C122.169 245.124 121.97 245.328 121.853 245.58C121.735 245.831 121.706 246.115 121.77 246.385C121.833 246.656 121.986 246.897 122.203 247.069C122.421 247.241 122.69 247.335 122.967 247.335H194.063C194.347 247.335 194.622 247.237 194.842 247.056C195.062 246.876 195.212 246.625 195.268 246.346C195.325 246.067 195.283 245.777 195.15 245.526C195.017 245.274 194.802 245.076 194.54 244.966Z" fill="#E6E6E6"/>
<path d="M288.513 217.301H28.7477C27.3848 217.298 26.0787 216.753 25.1161 215.786C24.1534 214.819 23.6128 213.508 23.6128 212.142V175.419H293.648V212.142C293.648 213.508 293.107 214.819 292.144 215.786C291.182 216.753 289.876 217.298 288.513 217.301Z" fill="#CCCCCC"/>
<path d="M293.919 192.775H23.376V35.6465C23.3779 33.9976 24.0322 32.4167 25.1953 31.2507C26.3584 30.0847 27.9353 29.4288 29.5801 29.427H287.715C289.36 29.4289 290.937 30.0847 292.1 31.2507C293.263 32.4167 293.918 33.9976 293.919 35.6465V192.775Z" fill="#3F3D56"/>
<path d="M277.761 181.371H39.5344C38.2663 181.369 37.0506 180.864 36.1539 179.965C35.2573 179.066 34.7529 177.847 34.7515 176.576V45.6262C34.7529 44.3549 35.2572 43.1361 36.1539 42.2371C37.0506 41.3382 38.2663 40.8325 39.5344 40.8311H277.761C279.029 40.8325 280.245 41.3382 281.141 42.2371C282.038 43.1361 282.542 44.3549 282.544 45.6262V176.576C282.542 177.847 282.038 179.066 281.141 179.965C280.245 180.864 279.029 181.369 277.761 181.371Z" fill="white"/>
<path d="M275.518 247.639H44.8384C44.6778 247.639 44.5238 247.575 44.4102 247.461C44.2967 247.347 44.2329 247.193 44.2329 247.032C44.2329 246.871 44.2967 246.716 44.4102 246.603C44.5238 246.489 44.6778 246.425 44.8384 246.425H275.518C275.679 246.425 275.833 246.489 275.947 246.603C276.06 246.716 276.124 246.871 276.124 247.032C276.124 247.193 276.06 247.347 275.947 247.461C275.833 247.575 275.679 247.639 275.518 247.639Z" fill="#CCCCCC"/>
<path d="M255.38 165.1H61.9145C61.754 165.1 61.6 165.036 61.4864 164.923C61.3729 164.809 61.3091 164.654 61.3091 164.493V71.5313C61.3091 71.3703 61.3729 71.2159 61.4864 71.1021C61.6 70.9883 61.754 70.9243 61.9145 70.9243C62.0751 70.9243 62.2291 70.9883 62.3427 71.1021C62.4562 71.2159 62.52 71.3703 62.52 71.5313V163.886H255.38C255.541 163.886 255.695 163.95 255.808 164.064C255.922 164.178 255.986 164.332 255.986 164.493C255.986 164.654 255.922 164.809 255.808 164.923C255.695 165.036 255.541 165.1 255.38 165.1Z" fill="#3F3D56"/>
<path d="M103.25 158.424H85.6533C85.1768 158.423 84.72 158.233 84.383 157.895C84.0461 157.558 83.8565 157.1 83.856 156.622V132.304C83.8565 131.826 84.0461 131.368 84.383 131.03C84.72 130.693 85.1768 130.503 85.6533 130.502H103.25C103.726 130.503 104.183 130.693 104.52 131.03C104.857 131.368 105.046 131.826 105.047 132.304V156.622C105.046 157.1 104.857 157.558 104.52 157.895C104.183 158.233 103.726 158.423 103.25 158.424Z" fill="#E63946"/>
<path d="M135.339 158.424H117.743C117.266 158.423 116.809 158.233 116.472 157.895C116.135 157.558 115.946 157.1 115.945 156.622V109.238C115.946 108.761 116.135 108.303 116.472 107.965C116.809 107.627 117.266 107.437 117.743 107.437H135.339C135.816 107.437 136.272 107.627 136.609 107.965C136.946 108.303 137.136 108.761 137.136 109.238V156.622C137.136 157.1 136.946 157.558 136.609 157.895C136.272 158.233 135.816 158.423 135.339 158.424Z" fill="#E63946"/>
<path d="M167.428 158.424H149.832C149.355 158.423 148.899 158.233 148.562 157.895C148.225 157.558 148.035 157.1 148.035 156.622V132.304C148.035 131.826 148.225 131.368 148.562 131.03C148.899 130.693 149.355 130.503 149.832 130.502H167.428C167.905 130.503 168.362 130.693 168.699 131.03C169.036 131.368 169.225 131.826 169.226 132.304V156.622C169.225 157.1 169.036 157.558 168.699 157.895C168.362 158.233 167.905 158.423 167.428 158.424Z" fill="#E63946"/>
<path d="M199.518 158.424H181.921C181.456 158.434 181.005 158.258 180.668 157.936C180.331 157.613 180.136 157.17 180.124 156.704V100.052C180.136 99.5853 180.331 99.1421 180.668 98.8197C181.005 98.4973 181.456 98.3219 181.921 98.332H199.518C199.983 98.3219 200.434 98.4973 200.771 98.8197C201.108 99.1421 201.304 99.5853 201.315 100.052V156.704C201.304 157.17 201.108 157.613 200.771 157.936C200.434 158.258 199.983 158.434 199.518 158.424Z" fill="#E63946"/>
<path d="M231.607 158.423H214.011C213.534 158.423 213.077 158.233 212.74 157.895C212.403 157.557 212.214 157.099 212.213 156.622V83.7448C212.214 83.2671 212.403 82.8092 212.74 82.4714C213.077 82.1336 213.534 81.9436 214.011 81.9431H231.607C232.084 81.9436 232.54 82.1336 232.877 82.4714C233.214 82.8092 233.404 83.2671 233.404 83.7448V156.622C233.404 157.099 233.214 157.557 232.877 157.895C232.54 158.233 232.084 158.423 231.607 158.423Z" fill="#E63946"/>
<path d="M94.4516 123.218C96.4579 123.218 98.0844 121.588 98.0844 119.576C98.0844 117.565 96.4579 115.935 94.4516 115.935C92.4453 115.935 90.8188 117.565 90.8188 119.576C90.8188 121.588 92.4453 123.218 94.4516 123.218Z" fill="#3F3D56"/>
<path d="M126.541 99.5458C128.547 99.5458 130.174 97.9153 130.174 95.9039C130.174 93.8925 128.547 92.262 126.541 92.262C124.535 92.262 122.908 93.8925 122.908 95.9039C122.908 97.9153 124.535 99.5458 126.541 99.5458Z" fill="#3F3D56"/>
<path d="M158.63 123.218C160.637 123.218 162.263 121.588 162.263 119.576C162.263 117.565 160.637 115.935 158.63 115.935C156.624 115.935 154.998 117.565 154.998 119.576C154.998 121.588 156.624 123.218 158.63 123.218Z" fill="#3F3D56"/>
<path d="M190.72 88.0131C192.726 88.0131 194.352 86.3825 194.352 84.3712C194.352 82.3598 192.726 80.7292 190.72 80.7292C188.713 80.7292 187.087 82.3598 187.087 84.3712C187.087 86.3825 188.713 88.0131 190.72 88.0131Z" fill="#3F3D56"/>
<path d="M222.809 74.6593C224.815 74.6593 226.442 73.0288 226.442 71.0174C226.442 69.006 224.815 67.3755 222.809 67.3755C220.803 67.3755 219.176 69.006 219.176 71.0174C219.176 73.0288 220.803 74.6593 222.809 74.6593Z" fill="#3F3D56"/>
<path d="M158.707 120.392L126.541 96.2389L94.8149 120.062L94.0884 119.091L126.541 94.722L158.554 118.761L190.366 83.86L190.493 83.8078L222.583 70.8462L223.035 71.9721L191.074 84.8822L158.707 120.392Z" fill="#3F3D56"/>
</g>
<defs>
<clipPath id="clip0_329_126">
<rect width="462" height="278" fill="white"/>
</clipPath>
</defs>
</svg>
