<svg width="121" height="118" viewBox="0 0 121 118" fill="none" xmlns="http://www.w3.org/2000/svg">
<g clip-path="url(#clip0_315_186)">
<path d="M76.6809 26.3433H44.3461C43.6093 26.3442 42.9029 26.6373 42.3818 27.1583C41.8608 27.6793 41.5677 28.3858 41.5668 29.1226V100.987L41.1962 101.1L33.264 103.529C32.8881 103.644 32.482 103.605 32.135 103.42C31.7879 103.236 31.5283 102.921 31.413 102.545L7.81821 25.4743C7.70338 25.0983 7.74252 24.6922 7.92701 24.3451C8.1115 23.998 8.42626 23.7384 8.8021 23.6232L21.0257 19.8804L56.4622 9.03356L68.6857 5.29071C68.8717 5.23346 69.0672 5.21345 69.261 5.23184C69.4547 5.25022 69.643 5.30664 69.8149 5.39785C69.9868 5.48907 70.1391 5.61329 70.263 5.76341C70.3868 5.91354 70.4799 6.08662 70.5368 6.27274L76.5679 25.9727L76.6809 26.3433Z" fill="#F2F2F2"/>
<path d="M83.7368 25.9727L76.4678 2.2297C76.3469 1.83409 76.1492 1.4662 75.886 1.14703C75.6229 0.827868 75.2994 0.563689 74.9341 0.369591C74.5688 0.175493 74.1688 0.0552778 73.757 0.0158207C73.3452 -0.0236364 72.9297 0.0184373 72.5342 0.139633L55.3486 5.39999L19.9139 16.2487L2.72837 21.5109C1.93001 21.756 1.26154 22.3079 0.869683 23.0454C0.477822 23.7829 0.394586 24.6458 0.638247 25.4446L25.4818 106.588C25.6798 107.233 26.0792 107.797 26.6214 108.199C27.1636 108.6 27.8202 108.817 28.4947 108.817C28.8069 108.817 29.1173 108.771 29.4155 108.678L41.1962 105.073L41.5668 104.958V104.57L41.1962 104.684L29.3062 108.324C28.6015 108.539 27.8404 108.466 27.1898 108.12C26.5392 107.775 26.0523 107.185 25.8358 106.481L0.994078 25.3353C0.886812 24.9863 0.849428 24.6197 0.884063 24.2563C0.918698 23.8929 1.02467 23.5399 1.19592 23.2176C1.36717 22.8952 1.60033 22.6098 1.88204 22.3777C2.16375 22.1455 2.48849 21.9712 2.83765 21.8648L20.0232 16.6026L55.458 5.75575L72.6435 0.493539C72.9084 0.412716 73.1837 0.371506 73.4606 0.371248C74.0549 0.372582 74.6331 0.564163 75.1105 0.917929C75.588 1.2717 75.9397 1.76906 76.114 2.33717L83.3495 25.9727L83.4644 26.3432H83.8498L83.7368 25.9727Z" fill="#3F3D56"/>
<path d="M23.2314 23.6838C22.8743 23.6835 22.5267 23.5688 22.2395 23.3565C21.9524 23.1442 21.7408 22.8454 21.6359 22.5041L19.2493 14.7086C19.1851 14.4992 19.1629 14.2792 19.1838 14.0612C19.2047 13.8432 19.2683 13.6315 19.3711 13.4381C19.4738 13.2447 19.6136 13.0734 19.7826 12.9341C19.9515 12.7947 20.1463 12.69 20.3557 12.6259L52.9553 2.64556C53.3782 2.51651 53.835 2.56052 54.2255 2.76793C54.616 2.97534 54.9082 3.32921 55.0381 3.75186L57.4246 11.5474C57.5536 11.9703 57.5096 12.4271 57.3022 12.8175C57.0948 13.208 56.7409 13.5003 56.3183 13.6302L23.7186 23.6106C23.5608 23.659 23.3966 23.6837 23.2314 23.6838Z" fill="#E63946"/>
<path d="M35.7334 8.32966C37.78 8.32966 39.4392 6.67052 39.4392 4.62387C39.4392 2.57723 37.78 0.918091 35.7334 0.918091C33.6867 0.918091 32.0276 2.57723 32.0276 4.62387C32.0276 6.67052 33.6867 8.32966 35.7334 8.32966Z" fill="#E63946"/>
<path d="M35.7334 6.97046C37.0294 6.97046 38.08 5.91984 38.08 4.62384C38.08 3.32784 37.0294 2.27722 35.7334 2.27722C34.4374 2.27722 33.3868 3.32784 33.3868 4.62384C33.3868 5.91984 34.4374 6.97046 35.7334 6.97046Z" fill="white"/>
<path d="M112.162 107.87H49.5343C49.1167 107.87 48.7164 107.704 48.4211 107.409C48.1259 107.113 47.9598 106.713 47.9593 106.296V31.2534C47.9598 30.8359 48.1259 30.4355 48.4211 30.1403C48.7164 29.845 49.1167 29.6789 49.5343 29.6785H112.162C112.58 29.6789 112.98 29.845 113.275 30.1403C113.57 30.4356 113.737 30.8359 113.737 31.2534V106.296C113.736 106.713 113.57 107.113 113.275 107.409C112.98 107.704 112.58 107.87 112.162 107.87Z" fill="#E6E6E6"/>
<path d="M83.3495 25.9727H44.3461C43.5111 25.9738 42.7106 26.3061 42.1201 26.8966C41.5297 27.487 41.1974 28.2875 41.1962 29.1226V104.684L41.5668 104.57V29.1226C41.5677 28.3857 41.8608 27.6793 42.3818 27.1583C42.9029 26.6372 43.6093 26.3441 44.3461 26.3432H83.4644L83.3495 25.9727ZM117.35 25.9727H44.3461C43.5111 25.9738 42.7106 26.3061 42.1201 26.8966C41.5297 27.487 41.1974 28.2875 41.1962 29.1226V113.985C41.1974 114.82 41.5297 115.621 42.1201 116.211C42.7106 116.802 43.5111 117.134 44.3461 117.135H117.35C118.185 117.134 118.986 116.802 119.576 116.211C120.167 115.621 120.499 114.82 120.5 113.985V29.1226C120.499 28.2875 120.167 27.487 119.576 26.8966C118.986 26.3061 118.185 25.9738 117.35 25.9727ZM120.129 113.985C120.129 114.722 119.835 115.428 119.314 115.949C118.793 116.47 118.087 116.763 117.35 116.764H44.3461C43.6093 116.763 42.9029 116.47 42.3818 115.949C41.8608 115.428 41.5677 114.722 41.5668 113.985V29.1226C41.5677 28.3857 41.8608 27.6793 42.3818 27.1583C42.9029 26.6372 43.6093 26.3441 44.3461 26.3432H117.35C118.087 26.3441 118.793 26.6372 119.314 27.1583C119.835 27.6793 120.129 28.3857 120.129 29.1226V113.985Z" fill="#3F3D56"/>
<path d="M97.8948 34.1254H63.8016C63.3594 34.1249 62.9356 33.949 62.6229 33.6364C62.3103 33.3238 62.1344 32.8999 62.1339 32.4578V24.3051C62.1344 23.8629 62.3103 23.4391 62.6229 23.1264C62.9356 22.8138 63.3594 22.6379 63.8016 22.6375H97.8948C98.3369 22.6379 98.7608 22.8138 99.0734 23.1264C99.386 23.4391 99.5619 23.8629 99.5624 24.3051V32.4578C99.5619 32.8999 99.386 33.3238 99.0734 33.6364C98.7608 33.949 98.3369 34.1249 97.8948 34.1254Z" fill="#E63946"/>
<path d="M80.8481 23.1933C82.8948 23.1933 84.5539 21.5342 84.5539 19.4875C84.5539 17.4409 82.8948 15.7817 80.8481 15.7817C78.8015 15.7817 77.1423 17.4409 77.1423 19.4875C77.1423 21.5342 78.8015 23.1933 80.8481 23.1933Z" fill="#E63946"/>
<path d="M80.8481 21.7447C82.0947 21.7447 83.1053 20.7341 83.1053 19.4875C83.1053 18.2409 82.0947 17.2303 80.8481 17.2303C79.6015 17.2303 78.5909 18.2409 78.5909 19.4875C78.5909 20.7341 79.6015 21.7447 80.8481 21.7447Z" fill="white"/>
</g>
<defs>
<clipPath id="clip0_315_186">
<rect width="120" height="117.135" fill="white" transform="translate(0.5)"/>
</clipPath>
</defs>
</svg>
